<svg width="96" height="96" viewBox="0 0 96 96" fill="none" xmlns="http://www.w3.org/2000/svg">
<path fill-rule="evenodd" clip-rule="evenodd" d="M40.6192 14.9627C36.5322 16.9731 30.811 19.0361 20.2808 19.7476C17.7326 19.9197 16.0695 21.8887 16.1413 23.86C16.5401 34.8024 17.8051 45.6868 20.2212 54.6152C22.694 63.7532 26.1386 69.9516 30.2188 72.6716C36.646 76.9568 41.9348 80.6724 45.482 83.2152C46.9788 84.288 49.0212 84.288 50.5176 83.2152C54.0648 80.6724 59.354 76.9568 65.7812 72.6716C69.8612 69.9516 73.306 63.7532 75.7788 54.6156C78.1948 45.6872 79.46 34.8026 79.8584 23.86C79.9304 21.8887 78.2672 19.9197 75.7192 19.7476C65.1888 19.0361 59.4676 16.9731 55.3808 14.9627C54.2132 14.3884 53.3104 13.9099 52.5692 13.5169C50.5408 12.4418 49.722 12.0078 48 12.0078C46.2776 12.0078 45.4588 12.4418 43.4308 13.5169C42.6896 13.9099 41.7868 14.3884 40.6192 14.9627ZM38.7451 6.91297C41.2084 5.57825 44.1072 4.00781 48 4.00781C51.8928 4.00781 54.7912 5.57825 57.2548 6.91301C57.8284 7.22377 58.3784 7.52177 58.912 7.78421C62.012 9.30917 66.7096 11.1206 76.2584 11.7658C82.5264 12.1893 88.1032 17.2919 87.8532 24.1513C87.442 35.4344 86.1332 46.978 83.5008 56.7052C80.9252 66.2236 76.8468 74.9096 70.2188 79.3284C63.88 83.554 58.6668 87.2168 55.1788 89.7172C50.896 92.7876 45.104 92.7876 40.8212 89.7172C37.3332 87.2168 32.1197 83.554 25.7811 79.3284C19.153 74.9096 15.0747 66.2236 12.499 56.7052C9.86664 46.9776 8.55776 35.4341 8.14664 24.1513C7.89668 17.2919 13.4733 12.1893 19.7415 11.7658C29.2902 11.1206 33.9878 9.30917 37.0879 7.78421C37.6214 7.52177 38.1715 7.22377 38.7451 6.91297Z" fill="url(#paint0_linear_686_6)"/>
<circle cx="48" cy="47.9997" r="20.76" fill="#689E30"/>
<path d="M48 68.7012C36.5841 68.7012 27.2986 59.4157 27.2986 47.9997C27.2986 36.5838 36.5841 27.2983 48 27.2983C59.4159 27.2983 68.7014 36.5838 68.7014 47.9997C68.7014 59.4157 59.4159 68.7012 48 68.7012ZM48 30.9012C38.5711 30.9012 30.9014 38.5708 30.9014 47.9997C30.9014 57.4287 38.5711 65.0983 48 65.0983C57.4289 65.0983 65.0986 57.4287 65.0986 47.9997C65.0986 38.5708 57.4289 30.9012 48 30.9012Z" fill="#689E30"/>
<path d="M61.711 62.8033C61.0486 62.8033 60.4116 62.4363 60.0994 61.8035C57.8002 57.1755 53.1638 54.2983 48 54.2983C42.8363 54.2983 38.1999 57.1713 35.9006 61.8035C35.4577 62.6936 34.3777 63.0564 33.4875 62.6135C32.5974 62.1705 32.2346 61.0905 32.6775 60.2003C35.5885 54.3405 41.461 50.6997 48 50.6997C54.5391 50.6997 60.4116 54.3405 63.3225 60.2003C63.7655 61.0905 63.4027 62.1705 62.5125 62.6135C62.2552 62.74 61.981 62.8033 61.711 62.8033Z" fill="white"/>
<path d="M48.0001 54.2985C43.0388 54.2985 39.0015 50.2611 39.0015 45.2999C39.0015 40.3386 43.0388 36.3013 48.0001 36.3013C52.9613 36.3013 56.9987 40.3386 56.9987 45.2999C56.9987 50.2611 52.9613 54.2985 48.0001 54.2985ZM48.0001 39.8999C45.0216 39.8999 42.6001 42.3214 42.6001 45.2999C42.6001 48.2783 45.0216 50.6999 48.0001 50.6999C50.9785 50.6999 53.4001 48.2783 53.4001 45.2999C53.4001 42.3214 50.9785 39.8999 48.0001 39.8999Z" fill="white"/>
<defs>
<linearGradient id="paint0_linear_686_6" x1="8.16" y1="48" x2="87.84" y2="48" gradientUnits="userSpaceOnUse">
<stop stop-color="#689E30"/>
<stop offset="1" stop-color="#7CB342"/>
</linearGradient>
</defs>
</svg>
