<svg width="96" height="96" viewBox="0 0 96 96" fill="none" xmlns="http://www.w3.org/2000/svg">
<path d="M83.964 40H77.68C76.849 39.9825 76.0424 39.7163 75.3643 39.2357C74.6862 38.7551 74.1678 38.0822 73.876 37.304L73.856 37.252C73.5173 36.4952 73.4126 35.6545 73.5551 34.8377C73.6977 34.0209 74.081 33.2654 74.656 32.668L79.096 28.228C79.8532 27.4704 80.2786 26.4431 80.2786 25.372C80.2786 24.3009 79.8532 23.2736 79.096 22.516L73.496 16.916C72.7384 16.1588 71.7111 15.7334 70.64 15.7334C69.5689 15.7334 68.5416 16.1588 67.784 16.916L63.344 21.356C62.7466 21.931 61.9911 22.3143 61.1743 22.4569C60.3575 22.5994 59.5168 22.4946 58.76 22.156H58.708C57.9222 21.8634 57.2432 21.3402 56.7599 20.6549C56.2767 19.9697 56.0118 19.1544 56 18.316V12.036C56 10.9656 55.5748 9.93901 54.8179 9.18212C54.061 8.42522 53.0344 8 51.964 8H44.036C42.9656 8 41.939 8.42522 41.1821 9.18212C40.4252 9.93901 40 10.9656 40 12.036V18.316C39.9828 19.1475 39.7167 19.9548 39.2361 20.6335C38.7555 21.3123 38.0825 21.8315 37.304 22.124H37.252C36.4952 22.4626 35.6545 22.5674 34.8377 22.4249C34.0209 22.2823 33.2654 21.899 32.668 21.324L28.228 16.884C27.4704 16.1268 26.4431 15.7014 25.372 15.7014C24.3009 15.7014 23.2736 16.1268 22.516 16.884L16.916 22.484C16.1588 23.2416 15.7334 24.2689 15.7334 25.34C15.7334 26.4111 16.1588 27.4384 16.916 28.196L21.356 32.636C21.931 33.2334 22.3143 33.9889 22.4569 34.8057C22.5994 35.6225 22.4946 36.4632 22.156 37.22V37.272C21.8674 38.0612 21.3463 38.7444 20.6614 39.2314C19.9766 39.7184 19.1602 39.9864 18.32 40H12.036C10.9656 40 9.93901 40.4252 9.18212 41.1821C8.42522 41.939 8 42.9656 8 44.036V51.964C8 53.0344 8.42522 54.061 9.18212 54.8179C9.93901 55.5748 10.9656 56 12.036 56H18.32C19.151 56.0175 19.9576 56.2837 20.6357 56.7643C21.3138 57.2449 21.8322 57.9178 22.124 58.696V58.748C22.4626 59.5048 22.5674 60.3455 22.4249 61.1623C22.2823 61.9791 21.899 62.7346 21.324 63.332L16.884 67.772C16.1268 68.5296 15.7014 69.5569 15.7014 70.628C15.7014 71.6991 16.1268 72.7264 16.884 73.484L22.484 79.084C23.2416 79.8412 24.2689 80.2666 25.34 80.2666C26.4111 80.2666 27.4384 79.8412 28.196 79.084L32.636 74.644C33.2334 74.069 33.9889 73.6857 34.8057 73.5431C35.6225 73.4006 36.4632 73.5053 37.22 73.844L37.272 73.864C38.0581 74.1514 38.7391 74.6694 39.2258 75.3503C39.7126 76.0312 39.9824 76.8432 40 77.68V83.964C40 85.0344 40.4252 86.061 41.1821 86.8179C41.939 87.5748 42.9656 88 44.036 88H51.964C52.494 88 53.0188 87.8956 53.5085 87.6928C53.9982 87.4899 54.4431 87.1927 54.8179 86.8179C55.1927 86.4431 55.4899 85.9982 55.6928 85.5085C55.8956 85.0188 56 84.494 56 83.964V77.68C56.0175 76.849 56.2837 76.0424 56.7643 75.3643C57.2449 74.6862 57.9178 74.1678 58.696 73.876L58.748 73.856C59.5048 73.5173 60.3455 73.4126 61.1623 73.5551C61.9791 73.6977 62.7346 74.081 63.332 74.656L67.772 79.096C68.5296 79.8532 69.5569 80.2786 70.628 80.2786C71.6991 80.2786 72.7264 79.8532 73.484 79.096L79.084 73.496C79.8412 72.7384 80.2666 71.7111 80.2666 70.64C80.2666 69.5689 79.8412 68.5416 79.084 67.784L74.644 63.344C74.069 62.7466 73.6857 61.9911 73.5431 61.1743C73.4006 60.3575 73.5053 59.5168 73.844 58.76L73.864 58.708C74.1546 57.9256 74.6741 57.2489 75.3547 56.7659C76.0353 56.2829 76.8456 56.016 77.68 56H83.964C85.0344 56 86.061 55.5748 86.8179 54.8179C87.5748 54.061 88 53.0344 88 51.964V44.036C88 43.506 87.8956 42.9812 87.6928 42.4915C87.4899 42.0018 87.1927 41.5569 86.8179 41.1821C86.4431 40.8073 85.9982 40.51 85.5085 40.3072C85.0188 40.1044 84.494 40 83.964 40ZM48 60C45.6266 60 43.3065 59.2962 41.3332 57.9776C39.3598 56.6591 37.8217 54.7849 36.9134 52.5922C36.0052 50.3995 35.7675 47.9867 36.2306 45.6589C36.6936 43.3311 37.8365 41.1929 39.5147 39.5147C41.1929 37.8365 43.3311 36.6936 45.6589 36.2306C47.9867 35.7675 50.3995 36.0052 52.5922 36.9134C54.7849 37.8217 56.6591 39.3598 57.9776 41.3332C59.2962 43.3065 60 45.6266 60 48C60 51.1826 58.7357 54.2348 56.4853 56.4853C54.2348 58.7357 51.1826 60 48 60Z" fill="black"/>
</svg>
