<svg width="800" height="800" viewBox="0 0 800 800" fill="none" xmlns="http://www.w3.org/2000/svg">
<g clip-path="url(#clip0_695_22)">
<path fill-rule="evenodd" clip-rule="evenodd" d="M575.375 400C575.375 365.613 603.288 337.688 637.688 337.688C672.075 337.688 700 365.613 700 400C700 434.388 672.075 462.313 637.688 462.313C603.288 462.313 575.375 434.388 575.375 400Z" fill="#D9D9D9"/>
<path fill-rule="evenodd" clip-rule="evenodd" d="M524 524C548.325 499.687 587.813 499.687 612.138 524C636.45 548.325 636.45 587.813 612.138 612.138C587.813 636.45 548.325 636.45 524 612.138C499.687 587.813 499.687 548.325 524 524Z" fill="#B3B3B3"/>
<path d="M400 700C434.414 700 462.313 672.102 462.313 637.688C462.313 603.273 434.414 575.375 400 575.375C365.586 575.375 337.688 603.273 337.688 637.688C337.688 672.102 365.586 700 400 700Z" fill="#8C8C8C"/>
<path fill-rule="evenodd" clip-rule="evenodd" d="M276 524C300.313 548.325 300.313 587.813 276 612.138C251.675 636.45 212.188 636.45 187.863 612.138C163.55 587.813 163.55 548.325 187.863 524C212.188 499.687 251.675 499.687 276 524Z" fill="#666666"/>
<path fill-rule="evenodd" clip-rule="evenodd" d="M224.625 400C224.625 434.388 196.712 462.313 162.312 462.313C127.925 462.313 100 434.388 100 400C100 365.613 127.925 337.688 162.312 337.688C196.712 337.688 224.625 365.613 224.625 400Z" fill="#404040"/>
<path fill-rule="evenodd" clip-rule="evenodd" d="M276 276C251.675 300.312 212.188 300.312 187.863 276C163.55 251.675 163.55 212.187 187.863 187.862C212.188 163.55 251.675 163.55 276 187.862C300.313 212.187 300.313 251.675 276 276Z" fill="#404040"/>
<path d="M400 224.625C434.414 224.625 462.313 196.727 462.313 162.312C462.313 127.898 434.414 100 400 100C365.586 100 337.688 127.898 337.688 162.312C337.688 196.727 365.586 224.625 400 224.625Z" fill="black"/>
</g>
<defs>
<clipPath id="clip0_695_22">
<rect width="800" height="800" fill="white"/>
</clipPath>
</defs>
</svg>
