<svg width="96" height="96" viewBox="0 0 96 96" fill="none" xmlns="http://www.w3.org/2000/svg">
<g clip-path="url(#clip0_690_18)">
<path d="M16.6113 87.1369C17.0546 92.1534 21.2565 95.9998 26.2938 95.9998H69.7044C74.7403 95.9998 78.9437 92.1534 79.3871 87.1369L84.195 24.1504H11.8035L16.6113 87.1369ZM61.7218 41.5941C61.7887 40.4923 62.7343 39.6536 63.8362 39.7206C64.9382 39.7875 65.7753 40.7348 65.7099 41.835L63.8107 79.7539C63.7438 80.8556 62.7982 81.693 61.6961 81.6259C60.5943 81.5605 59.7557 80.6134 59.8226 79.513L61.7218 41.5941ZM46.002 41.7137C46.002 40.6103 46.8967 39.7172 48.0002 39.7172C49.1036 39.7172 49.9982 40.6103 49.9982 41.7137V79.6341C49.9982 80.7375 49.1036 81.6306 48.0002 81.6306C46.8967 81.6306 46.002 80.7375 46.002 79.6341V41.7137ZM32.162 39.7206C33.2638 39.6536 34.2095 40.4923 34.2767 41.5941L36.1773 79.513C36.2443 80.6134 35.4056 81.5605 34.3038 81.6259C33.2034 81.6928 32.2562 80.8556 32.1892 79.7539L30.2885 41.835C30.2216 40.7348 31.0601 39.7875 32.162 39.7206Z" fill="black"/>
<path d="M82.3341 12.0969C82.3341 12.0969 75.9444 11.0349 74.2078 10.5071C72.6514 10.0335 59.0588 7.9635 59.0588 7.9635L58.5484 4.34531C58.1978 1.84819 56.1533 0 53.7454 0H47.9983H42.2513C39.8466 0 37.8023 1.84819 37.4483 4.34531L36.9381 7.9635C36.9381 7.9635 23.3501 10.0333 21.7922 10.5071C20.0558 11.0349 13.6628 12.0969 13.6628 12.0969C11.727 12.6309 10.3748 14.4697 10.3748 16.5712V20.6824H47.9985H85.6253V16.5712C85.6253 14.4697 84.273 12.6309 82.3341 12.0969ZM51.8096 7.2795H44.1904C43.5143 7.2795 42.9656 6.73106 42.9656 6.05475C42.9656 5.37844 43.5143 4.83 44.1904 4.83H51.8096C52.4858 4.83 53.0344 5.37844 53.0344 6.05475C53.0344 6.73106 52.4858 7.2795 51.8096 7.2795Z" fill="black"/>
</g>
<defs>
<clipPath id="clip0_690_18">
<rect width="96" height="96" fill="white"/>
</clipPath>
</defs>
</svg>
